<?xml version="1.0" standalone="no"?>
<!DOCTYPE svg PUBLIC "-//W3C//DTD SVG 20010904//EN"
 "http://www.w3.org/TR/2001/REC-SVG-20010904/DTD/svg10.dtd">
<svg version="1.0" xmlns="http://www.w3.org/2000/svg"
 width="500.000000pt" height="500.000000pt" viewBox="0 0 500.000000 500.000000"
 preserveAspectRatio="xMidYMid meet">
<metadata>
Created by potrace 1.14, written by Peter Selinger 2001-2017
</metadata>
<g transform="translate(0.000000,500.000000) scale(0.100000,-0.100000)"
fill="#000000" stroke="none">
<path d="M2407 4924 c-1 -1 -45 -4 -97 -8 -96 -6 -117 -9 -225 -27 -690 -116
-1320 -551 -1673 -1155 -155 -265 -275 -605 -307 -864 -4 -30 -9 -58 -10 -61
-6 -9 -19 -230 -18 -324 1 -453 142 -921 391 -1300 409 -624 1064 -1021 1802
-1092 99 -10 344 -10 450 0 629 57 1217 364 1624 847 383 454 581 1008 571
1600 -3 173 -6 202 -26 330 -60 387 -205 738 -432 1054 -28 39 -54 73 -57 76
-3 3 -23 28 -45 55 -61 77 -241 254 -335 330 -113 91 -282 202 -410 268 -143
74 -389 170 -494 191 -42 9 -62 14 -101 25 -22 5 -56 12 -75 15 -19 2 -51 7
-70 10 -71 12 -91 15 -167 21 -75 7 -291 13 -296 9z m308 -108 c513 -42 1028
-282 1405 -656 135 -134 158 -160 239 -269 215 -291 372 -652 426 -984 46
-277 42 -609 -10 -869 -115 -579 -489 -1135 -981 -1461 -314 -207 -647 -334
-999 -378 -116 -15 -446 -18 -555 -5 -41 5 -86 10 -100 12 -246 29 -603 160
-854 316 -178 109 -277 189 -436 348 -342 342 -562 767 -644 1245 -44 259 -40
585 10 835 144 711 598 1306 1246 1632 256 128 552 213 822 234 45 3 82 7 83
8 5 4 268 -2 348 -8z"/>
<path d="M1803 3119 c-12 -4 -26 -16 -31 -26 -5 -10 -8 -92 -7 -183 1 -91 0
-168 -2 -173 -3 -4 -15 6 -29 23 -14 16 -54 44 -90 61 -55 27 -76 32 -151 34
-300 7 -493 -222 -450 -535 30 -223 222 -385 447 -379 106 4 183 36 245 105
l30 34 2 -52 c0 -37 6 -55 19 -65 25 -19 68 -16 87 5 15 17 17 71 17 568 0
302 -4 554 -8 561 -12 19 -55 31 -79 22z m-223 -401 c90 -29 162 -108 178
-192 3 -17 5 -80 5 -141 0 -122 -18 -182 -71 -238 -68 -72 -193 -103 -295 -73
-144 42 -231 170 -230 341 1 158 86 270 233 309 58 15 122 13 180 -6z"/>
<path d="M3893 2862 c-12 -2 -54 -42 -100 -95 -43 -50 -93 -107 -110 -127 -18
-19 -52 -58 -75 -87 -24 -28 -47 -54 -53 -56 -5 -2 -76 77 -156 177 -129 161
-149 181 -178 184 -38 4 -71 -20 -71 -52 0 -17 149 -213 179 -236 4 -3 35 -40
70 -83 58 -70 63 -79 49 -95 -324 -376 -334 -392 -277 -434 37 -28 64 -13 134
73 34 41 92 112 130 159 38 47 81 97 95 112 l25 27 70 -81 c234 -272 256 -295
281 -302 29 -9 74 28 74 60 0 22 -21 49 -100 134 -8 9 -51 56 -95 104 -44 49
-95 105 -113 124 -18 20 -31 39 -30 43 3 7 59 71 229 259 108 120 112 127 91
162 -16 28 -33 36 -69 30z"/>
<path d="M2420 2841 c-176 -56 -294 -214 -304 -409 -8 -143 46 -286 138 -369
60 -54 103 -76 183 -97 160 -42 339 -7 434 84 37 35 38 39 28 69 -15 43 -52
51 -99 22 -55 -34 -112 -59 -150 -66 -60 -11 -153 -7 -198 9 -102 36 -190 133
-195 214 l-2 27 335 1 c184 0 352 4 372 8 51 9 62 32 53 119 -15 164 -102 295
-239 360 -102 49 -255 61 -356 28z m288 -131 c93 -40 191 -177 180 -252 l-3
-23 -320 0 -320 0 2 38 c5 78 77 188 147 224 94 49 219 54 314 13z"/>
</g>
</svg>
